<mxfile host="app.diagrams.net" modified="2022-04-28T05:27:27.063Z" agent="5.0 (Windows)" etag="uD8H9rhttX8f0V7ar805" version="16.6.5" type="github">
  <diagram id="wgWo86nZPhRSp-v8NFcp" name="Page-1">
    <mxGraphModel dx="865" dy="470" grid="1" gridSize="10" guides="1" tooltips="1" connect="1" arrows="1" fold="1" page="1" pageScale="1" pageWidth="827" pageHeight="1169" math="0" shadow="0">
      <root>
        <mxCell id="0" />
        <mxCell id="1" parent="0" />
        <mxCell id="TjzkBhFpDK5gZjMziRCS-1" value="" style="ellipse;shape=cloud;whiteSpace=wrap;html=1;" vertex="1" parent="1">
          <mxGeometry x="277" y="90" width="260" height="120" as="geometry" />
        </mxCell>
        <mxCell id="TjzkBhFpDK5gZjMziRCS-2" value="ANTES DE LLEGAR AL METODO IMPRIMIR: HEAP" style="rounded=0;whiteSpace=wrap;html=1;" vertex="1" parent="1">
          <mxGeometry x="297" y="50" width="220" height="40" as="geometry" />
        </mxCell>
        <mxCell id="TjzkBhFpDK5gZjMziRCS-3" value="ANTES DE LLEGAR AL METODO IMPRIMIR: STACK" style="rounded=0;whiteSpace=wrap;html=1;" vertex="1" parent="1">
          <mxGeometry x="40" y="50" width="220" height="40" as="geometry" />
        </mxCell>
        <mxCell id="TjzkBhFpDK5gZjMziRCS-4" value="STACK" style="swimlane;fontStyle=0;childLayout=stackLayout;horizontal=1;startSize=30;horizontalStack=0;resizeParent=1;resizeParentMax=0;resizeLast=0;collapsible=1;marginBottom=0;" vertex="1" parent="1">
          <mxGeometry x="80" y="105" width="140" height="90" as="geometry" />
        </mxCell>
        <mxCell id="TjzkBhFpDK5gZjMziRCS-5" value="+setNombre()" style="text;strokeColor=none;fillColor=none;align=left;verticalAlign=middle;spacingLeft=4;spacingRight=4;overflow=hidden;points=[[0,0.5],[1,0.5]];portConstraint=eastwest;rotatable=0;" vertex="1" parent="TjzkBhFpDK5gZjMziRCS-4">
          <mxGeometry y="30" width="140" height="30" as="geometry" />
        </mxCell>
        <mxCell id="TjzkBhFpDK5gZjMziRCS-6" value="+setEdad()" style="text;strokeColor=none;fillColor=none;align=left;verticalAlign=middle;spacingLeft=4;spacingRight=4;overflow=hidden;points=[[0,0.5],[1,0.5]];portConstraint=eastwest;rotatable=0;" vertex="1" parent="TjzkBhFpDK5gZjMziRCS-4">
          <mxGeometry y="60" width="140" height="30" as="geometry" />
        </mxCell>
        <mxCell id="TjzkBhFpDK5gZjMziRCS-9" value="" style="endArrow=classic;html=1;rounded=0;exitX=1;exitY=0.5;exitDx=0;exitDy=0;entryX=0.16;entryY=0.55;entryDx=0;entryDy=0;entryPerimeter=0;" edge="1" parent="1" source="TjzkBhFpDK5gZjMziRCS-5" target="TjzkBhFpDK5gZjMziRCS-1">
          <mxGeometry width="50" height="50" relative="1" as="geometry">
            <mxPoint x="430" y="270" as="sourcePoint" />
            <mxPoint x="480" y="220" as="targetPoint" />
          </mxGeometry>
        </mxCell>
        <mxCell id="TjzkBhFpDK5gZjMziRCS-37" value="" style="shape=table;html=1;whiteSpace=wrap;startSize=0;container=1;collapsible=0;childLayout=tableLayout;" vertex="1" parent="1">
          <mxGeometry x="329" y="135" width="156" height="30" as="geometry" />
        </mxCell>
        <mxCell id="TjzkBhFpDK5gZjMziRCS-46" value="" style="shape=tableRow;horizontal=0;startSize=0;swimlaneHead=0;swimlaneBody=0;top=0;left=0;bottom=0;right=0;collapsible=0;dropTarget=0;fillColor=none;points=[[0,0.5],[1,0.5]];portConstraint=eastwest;" vertex="1" parent="TjzkBhFpDK5gZjMziRCS-37">
          <mxGeometry width="156" height="30" as="geometry" />
        </mxCell>
        <mxCell id="TjzkBhFpDK5gZjMziRCS-47" value="juan&lt;span style=&quot;white-space: pre&quot;&gt;	&lt;/span&gt;" style="shape=partialRectangle;html=1;whiteSpace=wrap;connectable=0;fillColor=none;top=0;left=0;bottom=0;right=0;overflow=hidden;" vertex="1" parent="TjzkBhFpDK5gZjMziRCS-46">
          <mxGeometry width="52" height="30" as="geometry">
            <mxRectangle width="52" height="30" as="alternateBounds" />
          </mxGeometry>
        </mxCell>
        <mxCell id="TjzkBhFpDK5gZjMziRCS-48" value="20" style="shape=partialRectangle;html=1;whiteSpace=wrap;connectable=0;fillColor=none;top=0;left=0;bottom=0;right=0;overflow=hidden;" vertex="1" parent="TjzkBhFpDK5gZjMziRCS-46">
          <mxGeometry x="52" width="54" height="30" as="geometry">
            <mxRectangle width="54" height="30" as="alternateBounds" />
          </mxGeometry>
        </mxCell>
        <mxCell id="TjzkBhFpDK5gZjMziRCS-49" value="" style="shape=partialRectangle;html=1;whiteSpace=wrap;connectable=0;fillColor=none;top=0;left=0;bottom=0;right=0;overflow=hidden;pointerEvents=1;" vertex="1" parent="TjzkBhFpDK5gZjMziRCS-46">
          <mxGeometry x="106" width="50" height="30" as="geometry">
            <mxRectangle width="50" height="30" as="alternateBounds" />
          </mxGeometry>
        </mxCell>
        <mxCell id="TjzkBhFpDK5gZjMziRCS-50" value="" style="shape=ext;double=1;rounded=0;whiteSpace=wrap;html=1;fillColor=default;strokeColor=none;" vertex="1" parent="1">
          <mxGeometry x="435" y="127.5" width="55" height="45" as="geometry" />
        </mxCell>
        <mxCell id="TjzkBhFpDK5gZjMziRCS-51" value="imprimir(Cliente[] c, int i)" style="ellipse;shape=cloud;whiteSpace=wrap;html=1;fillColor=#ffe6cc;strokeColor=#d79b00;" vertex="1" parent="1">
          <mxGeometry x="437" y="260" width="260" height="120" as="geometry" />
        </mxCell>
        <mxCell id="TjzkBhFpDK5gZjMziRCS-52" value="DESPUES DE LLEGAR AL METODO IMPRIMIR: HEAP" style="rounded=0;whiteSpace=wrap;html=1;fillColor=#ffe6cc;strokeColor=#d79b00;" vertex="1" parent="1">
          <mxGeometry x="457" y="220" width="220" height="40" as="geometry" />
        </mxCell>
        <mxCell id="TjzkBhFpDK5gZjMziRCS-53" value="DESPUES DE LLEGAR AL METODO IMPRIMIR: STACK" style="rounded=0;whiteSpace=wrap;html=1;fillColor=#ffe6cc;strokeColor=#d79b00;" vertex="1" parent="1">
          <mxGeometry x="200" y="220" width="220" height="40" as="geometry" />
        </mxCell>
        <mxCell id="TjzkBhFpDK5gZjMziRCS-54" value="STACK" style="swimlane;fontStyle=0;childLayout=stackLayout;horizontal=1;startSize=30;horizontalStack=0;resizeParent=1;resizeParentMax=0;resizeLast=0;collapsible=1;marginBottom=0;fillColor=#ffe6cc;strokeColor=#d79b00;" vertex="1" parent="1">
          <mxGeometry x="240" y="275" width="140" height="90" as="geometry" />
        </mxCell>
        <mxCell id="TjzkBhFpDK5gZjMziRCS-55" value="+getNombre()" style="text;strokeColor=none;fillColor=none;align=left;verticalAlign=middle;spacingLeft=4;spacingRight=4;overflow=hidden;points=[[0,0.5],[1,0.5]];portConstraint=eastwest;rotatable=0;" vertex="1" parent="TjzkBhFpDK5gZjMziRCS-54">
          <mxGeometry y="30" width="140" height="30" as="geometry" />
        </mxCell>
        <mxCell id="TjzkBhFpDK5gZjMziRCS-56" value="+getEdad()" style="text;strokeColor=none;fillColor=none;align=left;verticalAlign=middle;spacingLeft=4;spacingRight=4;overflow=hidden;points=[[0,0.5],[1,0.5]];portConstraint=eastwest;rotatable=0;" vertex="1" parent="TjzkBhFpDK5gZjMziRCS-54">
          <mxGeometry y="60" width="140" height="30" as="geometry" />
        </mxCell>
        <mxCell id="TjzkBhFpDK5gZjMziRCS-57" value="" style="endArrow=classic;html=1;rounded=0;exitX=1;exitY=0.5;exitDx=0;exitDy=0;entryX=0.16;entryY=0.55;entryDx=0;entryDy=0;entryPerimeter=0;fillColor=#ffe6cc;strokeColor=#d79b00;" edge="1" parent="1" source="TjzkBhFpDK5gZjMziRCS-55" target="TjzkBhFpDK5gZjMziRCS-51">
          <mxGeometry width="50" height="50" relative="1" as="geometry">
            <mxPoint x="590" y="440" as="sourcePoint" />
            <mxPoint x="640" y="390" as="targetPoint" />
          </mxGeometry>
        </mxCell>
        <mxCell id="TjzkBhFpDK5gZjMziRCS-84" value="" style="ellipse;shape=cloud;whiteSpace=wrap;html=1;" vertex="1" parent="1">
          <mxGeometry x="270" y="485" width="520" height="335" as="geometry" />
        </mxCell>
        <mxCell id="TjzkBhFpDK5gZjMziRCS-85" value="Al LLEGAR AL METODO CAMBIAR: HEAP" style="rounded=0;whiteSpace=wrap;html=1;" vertex="1" parent="1">
          <mxGeometry x="307" y="470" width="220" height="40" as="geometry" />
        </mxCell>
        <mxCell id="TjzkBhFpDK5gZjMziRCS-86" value="ANTES DE LLEGAR AL METODO CAMBIAR: STACK" style="rounded=0;whiteSpace=wrap;html=1;" vertex="1" parent="1">
          <mxGeometry x="50" y="470" width="220" height="40" as="geometry" />
        </mxCell>
        <mxCell id="TjzkBhFpDK5gZjMziRCS-87" value="STACK" style="swimlane;fontStyle=0;childLayout=stackLayout;horizontal=1;startSize=30;horizontalStack=0;resizeParent=1;resizeParentMax=0;resizeLast=0;collapsible=1;marginBottom=0;" vertex="1" parent="1">
          <mxGeometry x="90" y="525" width="140" height="90" as="geometry" />
        </mxCell>
        <mxCell id="TjzkBhFpDK5gZjMziRCS-88" value="c" style="text;strokeColor=none;fillColor=none;align=left;verticalAlign=middle;spacingLeft=4;spacingRight=4;overflow=hidden;points=[[0,0.5],[1,0.5]];portConstraint=eastwest;rotatable=0;" vertex="1" parent="TjzkBhFpDK5gZjMziRCS-87">
          <mxGeometry y="30" width="140" height="30" as="geometry" />
        </mxCell>
        <mxCell id="TjzkBhFpDK5gZjMziRCS-89" value="aux" style="text;strokeColor=none;fillColor=none;align=left;verticalAlign=middle;spacingLeft=4;spacingRight=4;overflow=hidden;points=[[0,0.5],[1,0.5]];portConstraint=eastwest;rotatable=0;" vertex="1" parent="TjzkBhFpDK5gZjMziRCS-87">
          <mxGeometry y="60" width="140" height="30" as="geometry" />
        </mxCell>
        <mxCell id="TjzkBhFpDK5gZjMziRCS-90" value="" style="endArrow=classic;html=1;rounded=0;exitX=1;exitY=0.5;exitDx=0;exitDy=0;entryX=-0.011;entryY=0.093;entryDx=0;entryDy=0;entryPerimeter=0;" edge="1" parent="1" source="TjzkBhFpDK5gZjMziRCS-88" target="TjzkBhFpDK5gZjMziRCS-143">
          <mxGeometry width="50" height="50" relative="1" as="geometry">
            <mxPoint x="440" y="690" as="sourcePoint" />
            <mxPoint x="490" y="640" as="targetPoint" />
          </mxGeometry>
        </mxCell>
        <mxCell id="TjzkBhFpDK5gZjMziRCS-105" value="" style="rounded=1;whiteSpace=wrap;html=1;strokeWidth=2;fillWeight=4;hachureGap=8;hachureAngle=45;fillColor=#1ba1e2;sketch=1;" vertex="1" parent="1">
          <mxGeometry x="567" y="30" width="203" height="120" as="geometry" />
        </mxCell>
        <mxCell id="TjzkBhFpDK5gZjMziRCS-106" value="METODO IMPRIMIR" style="shape=ext;double=1;rounded=0;whiteSpace=wrap;html=1;fillColor=default;" vertex="1" parent="1">
          <mxGeometry x="587" y="50" width="173" height="80" as="geometry" />
        </mxCell>
        <mxCell id="TjzkBhFpDK5gZjMziRCS-107" value="" style="rounded=1;whiteSpace=wrap;html=1;strokeWidth=2;fillWeight=4;hachureGap=8;hachureAngle=45;fillColor=#1ba1e2;sketch=1;" vertex="1" parent="1">
          <mxGeometry x="587" y="410" width="203" height="120" as="geometry" />
        </mxCell>
        <mxCell id="TjzkBhFpDK5gZjMziRCS-108" value="METODO CAMBIAR" style="shape=ext;double=1;rounded=0;whiteSpace=wrap;html=1;fillColor=default;" vertex="1" parent="1">
          <mxGeometry x="607" y="430" width="173" height="80" as="geometry" />
        </mxCell>
        <mxCell id="TjzkBhFpDK5gZjMziRCS-143" value="Table" style="shape=table;startSize=30;container=1;collapsible=0;childLayout=tableLayout;fixedRows=1;rowLines=0;fontStyle=1;fillColor=default;" vertex="1" parent="1">
          <mxGeometry x="417" y="557.5" width="150" height="190" as="geometry" />
        </mxCell>
        <mxCell id="TjzkBhFpDK5gZjMziRCS-144" value="" style="shape=tableRow;horizontal=0;startSize=0;swimlaneHead=0;swimlaneBody=0;top=0;left=0;bottom=0;right=0;collapsible=0;dropTarget=0;fillColor=none;points=[[0,0.5],[1,0.5]];portConstraint=eastwest;" vertex="1" parent="TjzkBhFpDK5gZjMziRCS-143">
          <mxGeometry y="30" width="150" height="30" as="geometry" />
        </mxCell>
        <mxCell id="TjzkBhFpDK5gZjMziRCS-145" value="0" style="shape=partialRectangle;html=1;whiteSpace=wrap;connectable=0;fillColor=none;top=0;left=0;bottom=0;right=0;overflow=hidden;pointerEvents=1;" vertex="1" parent="TjzkBhFpDK5gZjMziRCS-144">
          <mxGeometry width="33" height="30" as="geometry">
            <mxRectangle width="33" height="30" as="alternateBounds" />
          </mxGeometry>
        </mxCell>
        <mxCell id="TjzkBhFpDK5gZjMziRCS-146" value="Juan, 20" style="shape=partialRectangle;html=1;whiteSpace=wrap;connectable=0;fillColor=none;top=0;left=0;bottom=0;right=0;align=left;spacingLeft=6;overflow=hidden;" vertex="1" parent="TjzkBhFpDK5gZjMziRCS-144">
          <mxGeometry x="33" width="117" height="30" as="geometry">
            <mxRectangle width="117" height="30" as="alternateBounds" />
          </mxGeometry>
        </mxCell>
        <mxCell id="TjzkBhFpDK5gZjMziRCS-147" value="" style="shape=tableRow;horizontal=0;startSize=0;swimlaneHead=0;swimlaneBody=0;top=0;left=0;bottom=0;right=0;collapsible=0;dropTarget=0;fillColor=none;points=[[0,0.5],[1,0.5]];portConstraint=eastwest;" vertex="1" parent="TjzkBhFpDK5gZjMziRCS-143">
          <mxGeometry y="60" width="150" height="40" as="geometry" />
        </mxCell>
        <mxCell id="TjzkBhFpDK5gZjMziRCS-148" value="1" style="shape=partialRectangle;html=1;whiteSpace=wrap;connectable=0;fillColor=none;top=0;left=0;bottom=0;right=0;overflow=hidden;" vertex="1" parent="TjzkBhFpDK5gZjMziRCS-147">
          <mxGeometry width="33" height="40" as="geometry">
            <mxRectangle width="33" height="40" as="alternateBounds" />
          </mxGeometry>
        </mxCell>
        <mxCell id="TjzkBhFpDK5gZjMziRCS-149" value="" style="shape=partialRectangle;html=1;whiteSpace=wrap;connectable=0;fillColor=none;top=0;left=0;bottom=0;right=0;align=left;spacingLeft=6;overflow=hidden;" vertex="1" parent="TjzkBhFpDK5gZjMziRCS-147">
          <mxGeometry x="33" width="117" height="40" as="geometry">
            <mxRectangle width="117" height="40" as="alternateBounds" />
          </mxGeometry>
        </mxCell>
        <mxCell id="TjzkBhFpDK5gZjMziRCS-150" value="" style="shape=tableRow;horizontal=0;startSize=0;swimlaneHead=0;swimlaneBody=0;top=0;left=0;bottom=0;right=0;collapsible=0;dropTarget=0;fillColor=none;points=[[0,0.5],[1,0.5]];portConstraint=eastwest;" vertex="1" parent="TjzkBhFpDK5gZjMziRCS-143">
          <mxGeometry y="100" width="150" height="30" as="geometry" />
        </mxCell>
        <mxCell id="TjzkBhFpDK5gZjMziRCS-151" value="2" style="shape=partialRectangle;html=1;whiteSpace=wrap;connectable=0;fillColor=none;top=0;left=0;bottom=0;right=0;overflow=hidden;" vertex="1" parent="TjzkBhFpDK5gZjMziRCS-150">
          <mxGeometry width="33" height="30" as="geometry">
            <mxRectangle width="33" height="30" as="alternateBounds" />
          </mxGeometry>
        </mxCell>
        <mxCell id="TjzkBhFpDK5gZjMziRCS-152" value="" style="shape=partialRectangle;html=1;whiteSpace=wrap;connectable=0;fillColor=none;top=0;left=0;bottom=0;right=0;align=left;spacingLeft=6;overflow=hidden;" vertex="1" parent="TjzkBhFpDK5gZjMziRCS-150">
          <mxGeometry x="33" width="117" height="30" as="geometry">
            <mxRectangle width="117" height="30" as="alternateBounds" />
          </mxGeometry>
        </mxCell>
        <mxCell id="TjzkBhFpDK5gZjMziRCS-153" value="" style="shape=tableRow;horizontal=0;startSize=0;swimlaneHead=0;swimlaneBody=0;top=0;left=0;bottom=0;right=0;collapsible=0;dropTarget=0;fillColor=none;points=[[0,0.5],[1,0.5]];portConstraint=eastwest;" vertex="1" parent="TjzkBhFpDK5gZjMziRCS-143">
          <mxGeometry y="130" width="150" height="30" as="geometry" />
        </mxCell>
        <mxCell id="TjzkBhFpDK5gZjMziRCS-154" value="3" style="shape=partialRectangle;html=1;whiteSpace=wrap;connectable=0;fillColor=none;top=0;left=0;bottom=0;right=0;overflow=hidden;" vertex="1" parent="TjzkBhFpDK5gZjMziRCS-153">
          <mxGeometry width="33" height="30" as="geometry">
            <mxRectangle width="33" height="30" as="alternateBounds" />
          </mxGeometry>
        </mxCell>
        <mxCell id="TjzkBhFpDK5gZjMziRCS-155" value="" style="shape=partialRectangle;html=1;whiteSpace=wrap;connectable=0;fillColor=none;top=0;left=0;bottom=0;right=0;align=left;spacingLeft=6;overflow=hidden;" vertex="1" parent="TjzkBhFpDK5gZjMziRCS-153">
          <mxGeometry x="33" width="117" height="30" as="geometry">
            <mxRectangle width="117" height="30" as="alternateBounds" />
          </mxGeometry>
        </mxCell>
        <mxCell id="TjzkBhFpDK5gZjMziRCS-156" value="" style="shape=tableRow;horizontal=0;startSize=0;swimlaneHead=0;swimlaneBody=0;top=0;left=0;bottom=0;right=0;collapsible=0;dropTarget=0;fillColor=none;points=[[0,0.5],[1,0.5]];portConstraint=eastwest;" vertex="1" parent="TjzkBhFpDK5gZjMziRCS-143">
          <mxGeometry y="160" width="150" height="30" as="geometry" />
        </mxCell>
        <mxCell id="TjzkBhFpDK5gZjMziRCS-157" value="4" style="shape=partialRectangle;html=1;whiteSpace=wrap;connectable=0;fillColor=none;top=0;left=0;bottom=0;right=0;overflow=hidden;" vertex="1" parent="TjzkBhFpDK5gZjMziRCS-156">
          <mxGeometry width="33" height="30" as="geometry">
            <mxRectangle width="33" height="30" as="alternateBounds" />
          </mxGeometry>
        </mxCell>
        <mxCell id="TjzkBhFpDK5gZjMziRCS-158" value="" style="shape=partialRectangle;html=1;whiteSpace=wrap;connectable=0;fillColor=none;top=0;left=0;bottom=0;right=0;align=left;spacingLeft=6;overflow=hidden;" vertex="1" parent="TjzkBhFpDK5gZjMziRCS-156">
          <mxGeometry x="33" width="117" height="30" as="geometry">
            <mxRectangle width="117" height="30" as="alternateBounds" />
          </mxGeometry>
        </mxCell>
        <mxCell id="TjzkBhFpDK5gZjMziRCS-159" value="" style="endArrow=classic;html=1;rounded=0;exitX=1;exitY=0.5;exitDx=0;exitDy=0;entryX=0;entryY=0.5;entryDx=0;entryDy=0;" edge="1" parent="1" source="TjzkBhFpDK5gZjMziRCS-144" target="TjzkBhFpDK5gZjMziRCS-161">
          <mxGeometry width="50" height="50" relative="1" as="geometry">
            <mxPoint x="240" y="580" as="sourcePoint" />
            <mxPoint x="550" y="640" as="targetPoint" />
          </mxGeometry>
        </mxCell>
        <mxCell id="TjzkBhFpDK5gZjMziRCS-160" value="" style="shape=table;html=1;whiteSpace=wrap;startSize=0;container=1;collapsible=0;childLayout=tableLayout;" vertex="1" parent="1">
          <mxGeometry x="599" y="687.5" width="156" height="30" as="geometry" />
        </mxCell>
        <mxCell id="TjzkBhFpDK5gZjMziRCS-161" value="" style="shape=tableRow;horizontal=0;startSize=0;swimlaneHead=0;swimlaneBody=0;top=0;left=0;bottom=0;right=0;collapsible=0;dropTarget=0;fillColor=none;points=[[0,0.5],[1,0.5]];portConstraint=eastwest;" vertex="1" parent="TjzkBhFpDK5gZjMziRCS-160">
          <mxGeometry width="156" height="30" as="geometry" />
        </mxCell>
        <mxCell id="TjzkBhFpDK5gZjMziRCS-162" value="pedro" style="shape=partialRectangle;html=1;whiteSpace=wrap;connectable=0;fillColor=none;top=0;left=0;bottom=0;right=0;overflow=hidden;" vertex="1" parent="TjzkBhFpDK5gZjMziRCS-161">
          <mxGeometry width="52" height="30" as="geometry">
            <mxRectangle width="52" height="30" as="alternateBounds" />
          </mxGeometry>
        </mxCell>
        <mxCell id="TjzkBhFpDK5gZjMziRCS-163" value="25" style="shape=partialRectangle;html=1;whiteSpace=wrap;connectable=0;fillColor=none;top=0;left=0;bottom=0;right=0;overflow=hidden;" vertex="1" parent="TjzkBhFpDK5gZjMziRCS-161">
          <mxGeometry x="52" width="54" height="30" as="geometry">
            <mxRectangle width="54" height="30" as="alternateBounds" />
          </mxGeometry>
        </mxCell>
        <mxCell id="TjzkBhFpDK5gZjMziRCS-164" value="" style="shape=partialRectangle;html=1;whiteSpace=wrap;connectable=0;fillColor=none;top=0;left=0;bottom=0;right=0;overflow=hidden;pointerEvents=1;" vertex="1" parent="TjzkBhFpDK5gZjMziRCS-161">
          <mxGeometry x="106" width="50" height="30" as="geometry">
            <mxRectangle width="50" height="30" as="alternateBounds" />
          </mxGeometry>
        </mxCell>
        <mxCell id="TjzkBhFpDK5gZjMziRCS-165" value="" style="shape=ext;double=1;rounded=0;whiteSpace=wrap;html=1;fillColor=default;strokeColor=none;" vertex="1" parent="1">
          <mxGeometry x="705" y="680" width="55" height="45" as="geometry" />
        </mxCell>
      </root>
    </mxGraphModel>
  </diagram>
</mxfile>
